{"title":"Apollo 18 2011 R5 LiNE XviD - MiSTERE","uid":6788847,"size":1501956884,"categoryP":"video","categoryS":"movies","magnet":"?xt=urn:btih:12a07f4f6ffed1521a76178f69f27d611781e442&amp;dn=Apollo+18+2011+R5+LiNE+XviD+-+MiSTERE&amp;tr=udp%3A%2F%2Ftracker.openbittorrent.com%3A80&amp;tr=udp%3A%2F%2Fopen.demonii.com%3A1337&amp;tr=udp%3A%2F%2Ftracker.coppersurfer.tk%3A6969&amp;tr=udp%3A%2F%2Fexodus.desync.com%3A6969","seeders":0,"leechers":0,"uploader":"sceneline","files":103,"time":1320193648,"description":"- &lt;a href=&quot;\nhttp://www.Speed.Cd&quot; rel=&quot;nofollow&quot; target=&quot;_NEW&quot;&gt;\nhttp://www.Speed.Cd&lt;/a&gt;      fast  and The Hottest Private Tracker on the net\n\n   signup is open now\n\nPlease Seed back to make the speed Faster!!!\n\n------------------nfo--------------------------\n-Apollo 18 2011 R5 LiNE XviD - MiSTERE\n &lt;a href=&quot;\nhttp://www.imdb.com/title/tt1772240/&quot; rel=&quot;nofollow&quot; target=&quot;_NEW&quot;&gt;\nhttp://www.imdb.com/title/tt1772240/&lt;/a&gt;\n\nVideo\nID                               : 0\nFormat                           : MPEG-4 Visual\nFormat profile                   : Advanced Simple@L5\nFormat settings, BVOP            : 2\nFormat settings, QPel            : No\nFormat settings, GMC             : No warppoints\nFormat settings, Matrix          : Default (H.263)\nMuxing mode                      : Packed bitstream\nCodec ID                         : XVID\nCodec ID/Hint                    : XviD\nDuration                         : 1h 23mn\nBit rate                         : 2 221 Kbps\nWidth                            : 720 pixels\nHeight                           : 356 pixels\nDisplay aspect ratio             : 2.022\nFrame rate                       : 25.000 fps\nColor space                      : YUV\nChroma subsampling               : 4:2:0\nBit depth                        : 8 bits\nScan type                        : Progressive\nCompression mode                 : Lossy\nBits/(Pixel*Frame)               : 0.347\nStream size                      : 1.29 GiB (94%)\nWriting library                  : XviD 64\n\nAudio\nID                               : 1\nFormat                           : MPEG Audio\nFormat version                   : Version 1\nFormat profile                   : Layer 3\nMode                             : Joint stereo\nMode extension                   : MS Stereo\nCodec ID                         : 55\nCodec ID/Hint                    : MP3\nDuration                         : 1h 23mn\nBit rate mode                    : Constant\nBit rate                         : 128 Kbps\nChannel(s)                       : 2 channels\nSampling rate                    : 44.1 KHz\nCompression mode                 : Lossy\nStream size                      : 76.1 MiB (5%)\nAlignment                        : Split accross interleaves\nInterleave, duration             : 40 ms (1.00 video frame)\n\n\n\nCropped Resized Sharpen and tweaked RGB\nAR changes constanly, \nsupposed to be that way so it is\n\n\n[IMG]http://i.imgur.com/OzJBr.png[/IMG]\n[IMG]http://i.imgur.com/KjGLy.png[/IMG]\n[IMG]http://i.imgur.com/FhlpB.png[/IMG]\n[IMG]http://i.imgur.com/yltLW.png[/IMG]\n[IMG]http://i.imgur.com/XnXlC.png[/IMG]\n[IMG]http://i.imgur.com/T9E7x.png[/IMG]\n[IMG]http://i.imgur.com/aj5Ed.png[/IMG]","torrent":{"xt":"urn:btih:12a07f4f6ffed1521a76178f69f27d611781e442","amp;dn":"Apollo+18+2011+R5+LiNE+XviD+-+MiSTERE","amp;tr":["udp%3A%2F%2Ftracker.openbittorrent.com%3A80","udp%3A%2F%2Fopen.demonii.com%3A1337","udp%3A%2F%2Ftracker.coppersurfer.tk%3A6969","udp%3A%2F%2Fexodus.desync.com%3A6969"],"infoHash":"12a07f4f6ffed1521a76178f69f27d611781e442","infoHashBuffer":{"type":"Buffer","data":[18,160,127,79,111,254,209,82,26,118,23,143,105,242,125,97,23,129,228,66]},"announce":[],"urlList":[]}}